<svg width="120" height="120" viewBox="0 0 120 120" fill="none" xmlns="http://www.w3.org/2000/svg">
  <!-- Outer ring -->
  <circle cx="60" cy="60" r="56" stroke="url(#outerGradient)" stroke-width="2" fill="none" opacity="0.6"/>
  
  <!-- Inner orbital ring -->
  <ellipse cx="60" cy="60" rx="42" ry="22" stroke="url(#ringGradient)" stroke-width="1.5" fill="none" opacity="0.8" transform="rotate(-25 60 60)"/>
  
  <!-- Secondary orbital ring -->
  <ellipse cx="60" cy="60" rx="38" ry="18" stroke="url(#ringGradient2)" stroke-width="1" fill="none" opacity="0.5" transform="rotate(35 60 60)"/>
  
  <!-- Main sphere with gradient -->
  <circle cx="60" cy="60" r="32" fill="url(#sphereGradient)" stroke="url(#sphereBorder)" stroke-width="1"/>
  
  <!-- Orbital dots -->
  <circle cx="28" cy="60" r="2.5" fill="#FFFFFF" opacity="0.9">
    <animate attributeName="opacity" values="0.5;1;0.5" dur="2s" repeatCount="indefinite"/>
  </circle>
  <circle cx="92" cy="60" r="2" fill="#FFFFFF" opacity="0.7">
    <animate attributeName="opacity" values="0.3;0.8;0.3" dur="3s" repeatCount="indefinite"/>
  </circle>
  <circle cx="60" cy="28" r="2.5" fill="#FFFFFF" opacity="0.8">
    <animate attributeName="opacity" values="0.6;1;0.6" dur="2.5s" repeatCount="indefinite"/>
  </circle>
  <circle cx="60" cy="92" r="2" fill="#FFFFFF" opacity="0.6">
    <animate attributeName="opacity" values="0.4;0.9;0.4" dur="3.5s" repeatCount="indefinite"/>
  </circle>
  
  <!-- Letter N -->
  <path d="M47 43 L47 77 L52 77 L52 53 L68 77 L73 77 L73 43 L68 43 L68 67 L52 43 L47 43 Z" fill="#FFFFFF" font-weight="bold"/>
  
  <!-- Gradients -->
  <defs>
    <radialGradient id="sphereGradient" cx="0.35" cy="0.35" r="0.8">
      <stop offset="0%" stop-color="#60A5FA"/>
      <stop offset="30%" stop-color="#3B82F6"/>
      <stop offset="70%" stop-color="#2563EB"/>
      <stop offset="100%" stop-color="#1E40AF"/>
    </radialGradient>
    
    <linearGradient id="sphereBorder" x1="0%" y1="0%" x2="100%" y2="100%">
      <stop offset="0%" stop-color="#93C5FD"/>
      <stop offset="100%" stop-color="#1E40AF"/>
    </linearGradient>
    
    <linearGradient id="outerGradient" x1="0%" y1="0%" x2="100%" y2="100%">
      <stop offset="0%" stop-color="#8B5CF6"/>
      <stop offset="50%" stop-color="#3B82F6"/>
      <stop offset="100%" stop-color="#06B6D4"/>
    </linearGradient>
    
    <linearGradient id="ringGradient" x1="0%" y1="0%" x2="100%" y2="100%">
      <stop offset="0%" stop-color="#A855F7"/>
      <stop offset="50%" stop-color="#60A5FA"/>
      <stop offset="100%" stop-color="#3B82F6"/>
    </linearGradient>
    
    <linearGradient id="ringGradient2" x1="0%" y1="0%" x2="100%" y2="100%">
      <stop offset="0%" stop-color="#06B6D4"/>
      <stop offset="100%" stop-color="#8B5CF6"/>
    </linearGradient>
  </defs>
</svg>